<svg xmlns="http://www.w3.org/2000/svg" width="114" height="28" viewBox="0 0 114 28"><g><g><g><g><path fill="#c0301c" d="M0 0h28v28H0z"/></g><g><path fill="#fff" d="M18.097 6.003l-2.018-.004c-2.267 0-3.732 1.546-3.732 3.938v1.815h-2.03a.322.322 0 0 0-.317.327v2.63c0 .18.142.326.317.326h2.03v6.638c0 .18.141.327.317.327h2.647a.322.322 0 0 0 .318-.327v-6.638H18a.321.321 0 0 0 .317-.326l.001-2.63a.331.331 0 0 0-.093-.23.313.313 0 0 0-.224-.097h-2.373v-1.539c0-.739.171-1.115 1.108-1.115h1.36a.322.322 0 0 0 .317-.326V6.329a.322.322 0 0 0-.317-.326z"/></g></g><g><path fill="#fff" d="M52.97 8.075a6.708 6.708 0 0 1-2.085.774 3.313 3.313 0 0 0-2.393-1.008c-1.812 0-3.28 1.43-3.28 3.19 0 .25.03.493.085.726a9.4 9.4 0 0 1-6.76-3.332 3.1 3.1 0 0 0-.444 1.603c0 1.107.58 2.083 1.46 2.654a3.345 3.345 0 0 1-1.486-.4v.04c0 1.545 1.13 2.833 2.63 3.128a3.381 3.381 0 0 1-1.482.054c.418 1.267 1.629 2.189 3.064 2.216a6.702 6.702 0 0 1-4.073 1.364c-.265 0-.526-.015-.783-.044a9.48 9.48 0 0 0 5.028 1.433c6.032 0 9.33-4.86 9.33-9.075l-.01-.413a6.5 6.5 0 0 0 1.64-1.649 6.683 6.683 0 0 1-1.884.502 3.225 3.225 0 0 0 1.442-1.763z"/></g><g><path fill="#fff" d="M72.733 6h4.102v.085c0 .444-.823.528-1.386.602-.19.025-.572.065-.68.118 1.038.535 1.207 1.377 1.207 2.633 0 1.427-.58 2.182-1.194 2.713-.38.328-.68.587-.68.932 0 .338.411.687.887 1.089.78.662 1.846 1.566 1.846 3.086 0 1.573-.7 2.699-2.081 3.346-1.065.5-2.211.554-2.655.554-.084 0-.133-.002-.14-.002h-.086c-.691 0-4.136-.154-4.136-3.182 0-2.977 3.75-3.21 4.9-3.21h.03c-.663-.854-.526-1.718-.526-1.718-.059.004-.143.007-.248.007-.433 0-1.268-.066-1.986-.513-.877-.546-1.322-1.474-1.322-2.76 0-3.633 4.107-3.78 4.148-3.78zm-.14 9.54c-.093 0-.184.005-.277.01-.785.056-1.507.34-2.033.8-.518.452-.783 1.023-.745 1.604.079 1.21 1.426 1.921 3.063 1.806 1.61-.113 2.684-1.007 2.606-2.219-.075-1.14-1.1-2-2.615-2zm-.644-8.466c-.116 0-.232.015-.343.045-.464.126-.832.501-1.037 1.056-.21.563-.224 1.15-.042 1.82.326 1.193 1.205 2.06 2.092 2.06.116 0 .232-.016.343-.046.968-.263 1.576-1.692 1.174-3.059-.427-1.448-1.116-1.876-2.187-1.876zm11.775 4.853v1.636h-2.677v2.584h-1.695v-2.584h-2.676v-1.636h2.676V9.343h1.695v2.584z"/></g><g><path fill="#fff" d="M103.18 9.549h-3.007v9.45h3.008zm.192-2.919c-.009-.925-.647-1.63-1.677-1.63-1.02 0-1.695.705-1.695 1.63 0 .906.647 1.631 1.659 1.631h.018c1.048 0 1.704-.725 1.695-1.63zM114 13.583c0-2.9-1.477-4.254-3.454-4.254-1.598 0-2.312.916-2.708 1.563V9.549h-2.998s.036.887 0 9.45h2.998v-5.273c0-.286.028-.563.1-.773.22-.562.712-1.144 1.541-1.144 1.085 0 1.522.867 1.522 2.136V19H114z"/></g></g></g></svg>